REM DIRINDEX 1\8,1\2\11,1\3\12,1\3\14,1\5\15,1\5\16,1\6\17,1\6\18,1\4\19,1\4\20,1\4\21,1\4\22,1\7\23,1\7\24,1\7\25,1\2\9\26,1\2\9\27,1\2\10\28,1\2\10\29,1\2\10\30,1\2\10\31,1\2\10\32,1\3\13\33,1\3\13\34,1\3\13\35
REM DIRNAME cjc123,folder01,folder02,folder03,folder04,folder05,folder06,folder07,folder08,folder09,folder10,folder11,folder12,folder13,folder14,folder15,folder16,folder17,folder18,folder19,folder20,folder21,folder22,folder23,folder24,folder25,folder26,folder27,folder28,folder29,folder30,folder31,folder32,folder33,folder34
TITLE ""
FILE "136 136_例文UNIT3_SET2.mp3" MP3
  TRACK 01 AUDIO
    TITLE "22:cjc123_3234"
    INDEX 01 00:00:00
  TRACK 02 AUDIO
    TITLE "0:"
    INDEX 01 00:02:47
  TRACK 03 AUDIO
    TITLE "19:cjc123_3235"
    INDEX 01 00:03:33
  TRACK 04 AUDIO
    TITLE "0:"
    INDEX 01 00:07:41
  TRACK 05 AUDIO
    TITLE "20:cjc123_3236"
    INDEX 01 00:07:74
  TRACK 06 AUDIO
    TITLE "0:"
    INDEX 01 00:12:20
  TRACK 07 AUDIO
    TITLE "21:cjc123_3237"
    INDEX 01 00:12:50
  TRACK 08 AUDIO
    TITLE "0:"
    INDEX 01 00:16:59
  TRACK 09 AUDIO
    TITLE "19:cjc123_3238"
    INDEX 01 00:17:33
  TRACK 10 AUDIO
    TITLE "0:"
    INDEX 01 00:20:22
  TRACK 11 AUDIO
    TITLE "20:cjc123_3239"
    INDEX 01 00:20:53
  TRACK 12 AUDIO
    TITLE "0:"
    INDEX 01 00:23:61
  TRACK 13 AUDIO
    TITLE "21:cjc123_3240"
    INDEX 01 00:24:14
  TRACK 14 AUDIO
    TITLE "0:"
    INDEX 01 00:27:00
  TRACK 15 AUDIO
    TITLE "19:cjc123_3241"
    INDEX 01 00:27:49
  TRACK 16 AUDIO
    TITLE "0:"
    INDEX 01 00:32:25
  TRACK 17 AUDIO
    TITLE "20:cjc123_3242"
    INDEX 01 00:32:60
  TRACK 18 AUDIO
    TITLE "0:"
    INDEX 01 00:37:44
  TRACK 19 AUDIO
    TITLE "21:cjc123_3243"
    INDEX 01 00:37:71
  TRACK 20 AUDIO
    TITLE "0:"
    INDEX 01 00:42:47
  TRACK 21 AUDIO
    TITLE "19:cjc123_3244"
    INDEX 01 00:43:23
  TRACK 22 AUDIO
    TITLE "0:"
    INDEX 01 00:46:47
  TRACK 23 AUDIO
    TITLE "20:cjc123_3245"
    INDEX 01 00:47:05
  TRACK 24 AUDIO
    TITLE "0:"
    INDEX 01 00:51:46
  TRACK 25 AUDIO
    TITLE "21:cjc123_3246"
    INDEX 01 00:51:71
  TRACK 26 AUDIO
    TITLE "0:"
    INDEX 01 00:55:22
  TRACK 27 AUDIO
    TITLE "19:cjc123_3247"
    INDEX 01 00:55:69
  TRACK 28 AUDIO
    TITLE "0:"
    INDEX 01 00:59:18
  TRACK 29 AUDIO
    TITLE "20:cjc123_3248"
    INDEX 01 00:59:49
  TRACK 30 AUDIO
    TITLE "0:"
    INDEX 01 01:02:44
  TRACK 31 AUDIO
    TITLE "21:cjc123_3249"
    INDEX 01 01:02:71
  TRACK 32 AUDIO
    TITLE "0:"
    INDEX 01 01:06:22
  TRACK 33 AUDIO
    TITLE "19:cjc123_3250"
    INDEX 01 01:06:69
  TRACK 34 AUDIO
    TITLE "0:"
    INDEX 01 01:10:53
  TRACK 35 AUDIO
    TITLE "20:cjc123_3251"
    INDEX 01 01:11:25
  TRACK 36 AUDIO
    TITLE "0:"
    INDEX 01 01:14:66
  TRACK 37 AUDIO
    TITLE "21:cjc123_3252"
    INDEX 01 01:15:19
  TRACK 38 AUDIO
    TITLE "0:"
    INDEX 01 01:19:03
  TRACK 39 AUDIO
    TITLE "19:cjc123_3253"
    INDEX 01 01:19:70
  TRACK 40 AUDIO
    TITLE "0:"
    INDEX 01 01:23:32
  TRACK 41 AUDIO
    TITLE "20:cjc123_3254"
    INDEX 01 01:23:65
  TRACK 42 AUDIO
    TITLE "0:"
    INDEX 01 01:27:04
  TRACK 43 AUDIO
    TITLE "21:cjc123_3255"
    INDEX 01 01:27:34
  TRACK 44 AUDIO
    TITLE "0:"
    INDEX 01 01:30:71
  TRACK 45 AUDIO
    TITLE "19:cjc123_3256"
    INDEX 01 01:31:49
  TRACK 46 AUDIO
    TITLE "0:"
    INDEX 01 01:35:61
  TRACK 47 AUDIO
    TITLE "20:cjc123_3257"
    INDEX 01 01:36:19
  TRACK 48 AUDIO
    TITLE "0:"
    INDEX 01 01:39:63
  TRACK 49 AUDIO
    TITLE "21:cjc123_3258"
    INDEX 01 01:40:15
  TRACK 50 AUDIO
    TITLE "0:"
    INDEX 01 01:44:28
  TRACK 51 AUDIO
    TITLE "19:cjc123_3259"
    INDEX 01 01:45:02
  TRACK 52 AUDIO
    TITLE "0:"
    INDEX 01 01:48:05
  TRACK 53 AUDIO
    TITLE "20:cjc123_3260"
    INDEX 01 01:48:44
  TRACK 54 AUDIO
    TITLE "0:"
    INDEX 01 01:52:57
  TRACK 55 AUDIO
    TITLE "21:cjc123_3261"
    INDEX 01 01:53:08
  TRACK 56 AUDIO
    TITLE "0:"
    INDEX 01 01:56:12
  TRACK 57 AUDIO
    TITLE "19:cjc123_3262"
    INDEX 01 01:56:71
  TRACK 58 AUDIO
    TITLE "0:"
    INDEX 01 02:00:14
  TRACK 59 AUDIO
    TITLE "20:cjc123_3263"
    INDEX 01 02:00:49
  TRACK 60 AUDIO
    TITLE "0:"
    INDEX 01 02:04:70
  TRACK 61 AUDIO
    TITLE "21:cjc123_3264"
    INDEX 01 02:05:27
  TRACK 62 AUDIO
    TITLE "0:"
    INDEX 01 02:08:45
  TRACK 63 AUDIO
    TITLE "19:cjc123_3265"
    INDEX 01 02:09:24
  TRACK 64 AUDIO
    TITLE "0:"
    INDEX 01 02:12:27
  TRACK 65 AUDIO
    TITLE "20:cjc123_3266"
    INDEX 01 02:12:58
  TRACK 66 AUDIO
    TITLE "0:"
    INDEX 01 02:15:72
  TRACK 67 AUDIO
    TITLE "21:cjc123_3267"
    INDEX 01 02:16:26
  TRACK 68 AUDIO
    TITLE "0:"
    INDEX 01 02:19:29
  TRACK 69 AUDIO
    TITLE "19:cjc123_3268"
    INDEX 01 02:20:12
  TRACK 70 AUDIO
    TITLE "0:"
    INDEX 01 02:23:52
  TRACK 71 AUDIO
    TITLE "20:cjc123_3269"
    INDEX 01 02:23:68
  TRACK 72 AUDIO
    TITLE "0:"
    INDEX 01 02:27:62
  TRACK 73 AUDIO
    TITLE "21:cjc123_3270"
    INDEX 01 02:28:16
  TRACK 74 AUDIO
    TITLE "0:"
    INDEX 01 02:31:55
  TRACK 75 AUDIO
    TITLE "19:cjc123_3271"
    INDEX 01 02:32:18
  TRACK 76 AUDIO
    TITLE "0:"
    INDEX 01 02:35:32
  TRACK 77 AUDIO
    TITLE "20:cjc123_3272"
    INDEX 01 02:35:71
  TRACK 78 AUDIO
    TITLE "0:"
    INDEX 01 02:40:48
  TRACK 79 AUDIO
    TITLE "21:cjc123_3273"
    INDEX 01 02:41:03
  TRACK 80 AUDIO
    TITLE "0:"
    INDEX 01 02:44:19
  TRACK 81 AUDIO
    TITLE "19:cjc123_3274"
    INDEX 01 02:44:70
  TRACK 82 AUDIO
    TITLE "0:"
    INDEX 01 02:49:12
  TRACK 83 AUDIO
    TITLE "20:cjc123_3275"
    INDEX 01 02:49:59
  TRACK 84 AUDIO
    TITLE "0:"
    INDEX 01 02:53:71
  TRACK 85 AUDIO
    TITLE "21:cjc123_3276"
    INDEX 01 02:54:25
  TRACK 86 AUDIO
    TITLE "0:"
    INDEX 01 02:58:46
  TRACK 87 AUDIO
    TITLE "19:cjc123_3277"
    INDEX 01 02:59:34
  TRACK 88 AUDIO
    TITLE "0:"
    INDEX 01 03:02:15
  TRACK 89 AUDIO
    TITLE "20:cjc123_3278"
    INDEX 01 03:02:54
  TRACK 90 AUDIO
    TITLE "0:"
    INDEX 01 03:05:64
  TRACK 91 AUDIO
    TITLE "21:cjc123_3279"
    INDEX 01 03:06:15
  TRACK 92 AUDIO
    TITLE "0:"
    INDEX 01 03:08:70
